<svg width="60" height="60" viewBox="0 0 60 60" fill="none" xmlns="http://www.w3.org/2000/svg">
<path opacity="0.1" d="M30 60C46.5685 60 60 46.5685 60 30C60 13.4315 46.5685 0 30 0C13.4315 0 0 13.4315 0 30C0 46.5685 13.4315 60 30 60Z" fill="#AA843C"/>
<path d="M35.0003 29V22.5C35.0003 21.837 35.2637 21.2011 35.7325 20.7322C36.2013 20.2634 36.8372 20 37.5003 20C38.1633 20 38.7992 20.2634 39.268 20.7322C39.7369 21.2011 40.0003 21.837 40.0003 22.5V33C40.0003 34.3132 39.7416 35.6136 39.2391 36.8268C38.7365 38.0401 37.9999 39.1425 37.0713 40.0711C36.1428 40.9997 35.0404 41.7362 33.8271 42.2388C32.6138 42.7413 31.3135 43 30.0003 43C24.4753 43 22.0003 40 17.9253 31.4125C17.5937 30.8373 17.5043 30.154 17.6766 29.5128C17.8489 28.8717 18.2688 28.3253 18.844 27.9937C19.4192 27.6622 20.1025 27.5728 20.7437 27.7451C21.3848 27.9174 21.9312 28.3373 22.2628 28.9125L25.0003 33.6625V20.5C25.0003 19.837 25.2637 19.2011 25.7325 18.7322C26.2013 18.2634 26.8372 18 27.5003 18C28.1633 18 28.7992 18.2634 29.268 18.7322C29.7369 19.2011 30.0003 19.837 30.0003 20.5V29" stroke="#AA843C" stroke-width="2" stroke-linecap="round" stroke-linejoin="round"/>
<path d="M35 22.5V18.5C35 17.837 34.7366 17.2011 34.2678 16.7322C33.7989 16.2634 33.163 16 32.5 16C31.837 16 31.2011 16.2634 30.7322 16.7322C30.2634 17.2011 30 17.837 30 18.5V20.5" stroke="#AA843C" stroke-width="2" stroke-linecap="round" stroke-linejoin="round"/>
</svg>
