<svg width="60" height="60" viewBox="0 0 60 60" fill="none" xmlns="http://www.w3.org/2000/svg">
<path opacity="0.1" d="M30 60C46.5685 60 60 46.5685 60 30C60 13.4315 46.5685 0 30 0C13.4315 0 0 13.4315 0 30C0 46.5685 13.4315 60 30 60Z" fill="#AA843C"/>
<path d="M24 32C26.7614 32 29 29.7614 29 27C29 24.2386 26.7614 22 24 22C21.2386 22 19 24.2386 19 27C19 29.7614 21.2386 32 24 32Z" stroke="#AA843C" stroke-width="2" stroke-linecap="round" stroke-linejoin="round"/>
<path d="M33 24H45" stroke="#AA843C" stroke-width="2" stroke-linecap="round" stroke-linejoin="round"/>
<path d="M33 30H45" stroke="#AA843C" stroke-width="2" stroke-linecap="round" stroke-linejoin="round"/>
<path d="M36 36H45" stroke="#AA843C" stroke-width="2" stroke-linecap="round" stroke-linejoin="round"/>
<path d="M16.25 38C16.6906 36.2792 17.6914 34.7539 19.0946 33.6647C20.4978 32.5755 22.2237 31.9843 24 31.9843C25.7763 31.9843 27.5022 32.5755 28.9054 33.6647C30.3086 34.7539 31.3094 36.2792 31.75 38" stroke="#AA843C" stroke-width="2" stroke-linecap="round" stroke-linejoin="round"/>
</svg>
