<svg width="60" height="60" viewBox="0 0 60 60" fill="none" xmlns="http://www.w3.org/2000/svg">
<path d="M30 60C46.5685 60 60 46.5685 60 30C60 13.4315 46.5685 0 30 0C13.4315 0 0 13.4315 0 30C0 46.5685 13.4315 60 30 60Z" fill="#AA843C"/>
<path d="M29.5557 19.3502V41.3502" stroke="white" stroke-width="2" stroke-linecap="round" stroke-linejoin="round"/>
<path d="M26.5557 41.3502H32.5557" stroke="white" stroke-width="2" stroke-linecap="round" stroke-linejoin="round"/>
<path d="M20.5557 25.3502L38.5557 21.3502" stroke="white" stroke-width="2" stroke-linecap="round" stroke-linejoin="round"/>
<path d="M16.5557 35.3502C16.5557 37.5627 19.0557 38.3502 20.5557 38.3502C22.0557 38.3502 24.5557 37.5627 24.5557 35.3502L20.5557 25.3502L16.5557 35.3502Z" stroke="white" stroke-width="2" stroke-linecap="round" stroke-linejoin="round"/>
<path d="M34.5557 31.3502C34.5557 33.5627 37.0557 34.3502 38.5557 34.3502C40.0557 34.3502 42.5557 33.5627 42.5557 31.3502L38.5557 21.3502L34.5557 31.3502Z" stroke="white" stroke-width="2" stroke-linecap="round" stroke-linejoin="round"/>
</svg>
