<svg width="60" height="60" viewBox="0 0 60 60" fill="none" xmlns="http://www.w3.org/2000/svg">
<path d="M30 60C46.5685 60 60 46.5685 60 30C60 13.4315 46.5685 0 30 0C13.4315 0 0 13.4315 0 30C0 46.5685 13.4315 60 30 60Z" fill="#AA843C"/>
<path d="M29.9883 23C31.9213 23 33.4883 21.433 33.4883 19.5C33.4883 17.567 31.9213 16 29.9883 16C28.0553 16 26.4883 17.567 26.4883 19.5C26.4883 21.433 28.0553 23 29.9883 23Z" stroke="white" stroke-width="2" stroke-linecap="round" stroke-linejoin="round"/>
<path d="M33.2375 30.8375L37.5875 34.2125C37.8751 34.4519 38.2417 34.5751 38.6155 34.5581C38.9893 34.541 39.3432 34.3849 39.6078 34.1203C39.8724 33.8557 40.0285 33.5018 40.0456 33.128C40.0626 32.7542 39.9394 32.3876 39.7 32.1L34.75 25.7375C34.5193 25.5045 34.2449 25.3194 33.9424 25.1928C33.6399 25.0662 33.3154 25.0007 32.9875 25H26.9875C26.322 25.0036 25.6846 25.2684 25.2125 25.7375L20.2625 32.1C20.0048 32.3861 19.8669 32.7603 19.8775 33.1453C19.8881 33.5302 20.0463 33.8963 20.3194 34.1678C20.5925 34.4393 20.9595 34.5953 21.3445 34.6036C21.7295 34.612 22.1029 34.4719 22.3875 34.2125L26.7375 30.8375L23.2625 41.7875C23.1788 41.9664 23.1311 42.1601 23.1223 42.3574C23.1134 42.5548 23.1435 42.7519 23.2108 42.9377C23.2781 43.1234 23.3814 43.294 23.5146 43.4398C23.6479 43.5856 23.8086 43.7038 23.9875 43.7875C24.1664 43.8712 24.3601 43.9189 24.5574 43.9277C24.7548 43.9366 24.9519 43.9065 25.1377 43.8392C25.3234 43.7719 25.494 43.6686 25.6398 43.5354C25.7856 43.4021 25.9038 43.2414 25.9875 43.0625L29.9875 36.7625L33.9875 43.0625C34.0656 43.2492 34.1808 43.4182 34.3259 43.5593C34.4711 43.7004 34.6433 43.8106 34.8323 43.8833C35.0212 43.9561 35.2228 43.9898 35.4251 43.9825C35.6274 43.9753 35.8262 43.9271 36.0093 43.841C36.1925 43.7549 36.3564 43.6326 36.4911 43.4815C36.6258 43.3304 36.7285 43.1535 36.793 42.9617C36.8575 42.7698 36.8826 42.5669 36.8666 42.3651C36.8506 42.1633 36.7939 41.9668 36.7 41.7875L33.2375 30.8375Z" stroke="white" stroke-width="2" stroke-linecap="round" stroke-linejoin="round"/>
</svg>
