<svg width="60" height="60" viewBox="0 0 60 60" fill="none" xmlns="http://www.w3.org/2000/svg">
<path opacity="0.1" d="M30 60C46.5685 60 60 46.5685 60 30C60 13.4315 46.5685 0 30 0C13.4315 0 0 13.4315 0 30C0 46.5685 13.4315 60 30 60Z" fill="#AA843C"/>
<path d="M30 42C36.6274 42 42 36.6274 42 30C42 23.3726 36.6274 18 30 18C23.3726 18 18 23.3726 18 30C18 36.6274 23.3726 42 30 42Z" stroke="#AA843C" stroke-width="2" stroke-linecap="round" stroke-linejoin="round"/>
<path d="M25.5 31.5C26.3284 31.5 27 30.8284 27 30C27 29.1716 26.3284 28.5 25.5 28.5C24.6716 28.5 24 29.1716 24 30C24 30.8284 24.6716 31.5 25.5 31.5Z" fill="#AA843C"/>
<path d="M34.5 31.5C35.3284 31.5 36 30.8284 36 30C36 29.1716 35.3284 28.5 34.5 28.5C33.6716 28.5 33 29.1716 33 30C33 30.8284 33.6716 31.5 34.5 31.5Z" fill="#AA843C"/>
<path d="M33.3125 35C32.3308 35.652 31.1785 35.9998 30 35.9998C28.8215 35.9998 27.6692 35.652 26.6875 35" stroke="#AA843C" stroke-width="2" stroke-linecap="round" stroke-linejoin="round"/>
<path d="M30 18C28 20.5 28 23 28 23C28 23.5304 28.2107 24.0391 28.5858 24.4142C28.9609 24.7893 29.4696 25 30 25C30.5304 25 31.0391 24.7893 31.4142 24.4142C31.7893 24.0391 32 23.5304 32 23" stroke="#AA843C" stroke-width="2" stroke-linecap="round" stroke-linejoin="round"/>
</svg>
