<svg width="60" height="60" viewBox="0 0 60 60" fill="none" xmlns="http://www.w3.org/2000/svg">
<path opacity="0.1" d="M30 60C46.5685 60 60 46.5685 60 30C60 13.4315 46.5685 0 30 0C13.4315 0 0 13.4315 0 30C0 46.5685 13.4315 60 30 60Z" fill="#AA843C"/>
<path d="M19 42H41" stroke="#AA843C" stroke-width="2" stroke-linecap="round" stroke-linejoin="round"/>
<path d="M27.9998 31L25.7748 20.625C25.6816 20.1875 25.6874 19.7347 25.7918 19.2998C25.8962 18.8649 26.0966 18.4588 26.3782 18.1112C26.6598 17.7637 27.0156 17.4836 27.4194 17.2913C27.8233 17.099 28.265 16.9995 28.7123 17H31.2873C31.7346 16.9995 32.1764 17.099 32.5802 17.2913C32.9841 17.4836 33.3398 17.7637 33.6214 18.1112C33.903 18.4588 34.1034 18.8649 34.2078 19.2998C34.3122 19.7347 34.318 20.1875 34.2248 20.625L31.9998 31" stroke="#AA843C" stroke-width="2" stroke-linecap="round" stroke-linejoin="round"/>
<path d="M40 31H20C19.4477 31 19 31.4477 19 32V37C19 37.5523 19.4477 38 20 38H40C40.5523 38 41 37.5523 41 37V32C41 31.4477 40.5523 31 40 31Z" stroke="#AA843C" stroke-width="2" stroke-linecap="round" stroke-linejoin="round"/>
</svg>
