<svg width="60" height="60" viewBox="0 0 60 60" fill="none" xmlns="http://www.w3.org/2000/svg">
<path d="M30 60C46.5685 60 60 46.5685 60 30C60 13.4315 46.5685 0 30 0C13.4315 0 0 13.4315 0 30C0 46.5685 13.4315 60 30 60Z" fill="#AA843C"/>
<path d="M44.0875 29.2251L41 30.7626L37 23.1126L40.125 21.5501C40.3572 21.4317 40.6269 21.41 40.8751 21.4896C41.1233 21.5692 41.3299 21.7437 41.45 21.9751L44.525 27.8626C44.5874 27.9804 44.6255 28.1096 44.6372 28.2424C44.6489 28.3752 44.634 28.509 44.5932 28.636C44.5525 28.7629 44.4867 28.8805 44.3999 28.9816C44.313 29.0828 44.2068 29.1656 44.0875 29.2251V29.2251Z" stroke="white" stroke-width="2" stroke-linecap="round" stroke-linejoin="round"/>
<path d="M18.9998 30.6375L15.9123 29.0875C15.7934 29.0292 15.6875 28.9477 15.6007 28.8476C15.514 28.7476 15.4483 28.6311 15.4075 28.5052C15.3667 28.3793 15.3516 28.2464 15.3631 28.1145C15.3747 27.9826 15.4127 27.8544 15.4748 27.7375L18.5498 21.85C18.6701 21.6188 18.8759 21.4437 19.1234 21.3619C19.3709 21.2802 19.6405 21.2984 19.8748 21.4125L22.9998 22.975L18.9998 30.6375Z" stroke="white" stroke-width="2" stroke-linecap="round" stroke-linejoin="round"/>
<path d="M41 30.7627L39 33.1127L34.4 37.7127C34.2746 37.8299 34.1227 37.915 33.9573 37.9608C33.7918 38.0065 33.6178 38.0114 33.45 37.9752L26.2 36.1627C26.0676 36.1258 25.9442 36.0619 25.8375 35.9752L19 30.6377" stroke="white" stroke-width="2" stroke-linecap="round" stroke-linejoin="round"/>
<path d="M39.0001 33.1123L33.5001 29.1123L31.9001 30.3123C31.2069 30.8297 30.3651 31.1092 29.5001 31.1092C28.6351 31.1092 27.7933 30.8297 27.1001 30.3123L26.4251 29.7998C26.311 29.713 26.2166 29.603 26.1481 29.477C26.0797 29.351 26.0388 29.2119 26.0282 29.0689C26.0175 28.9259 26.0374 28.7823 26.0864 28.6476C26.1355 28.5128 26.2126 28.39 26.3126 28.2873L31.2126 23.3998C31.3047 23.3082 31.4139 23.2357 31.534 23.1863C31.6541 23.137 31.7828 23.1119 31.9126 23.1123H37.0001" stroke="white" stroke-width="2" stroke-linecap="round" stroke-linejoin="round"/>
<path d="M23.0742 22.9753L29.4867 21.1003C29.7146 21.0349 29.9582 21.0526 30.1742 21.1503L34.4992 23.1128" stroke="white" stroke-width="2" stroke-linecap="round" stroke-linejoin="round"/>
<path d="M28 40.6125L24.2375 39.6625C24.0842 39.6279 23.9422 39.5547 23.825 39.45L21 37" stroke="white" stroke-width="2" stroke-linecap="round" stroke-linejoin="round"/>
</svg>
