<svg width="60" height="60" viewBox="0 0 60 60" fill="none" xmlns="http://www.w3.org/2000/svg">
<path opacity="0.1" d="M30 60C46.5685 60 60 46.5685 60 30C60 13.4315 46.5685 0 30 0C13.4315 0 0 13.4315 0 30C0 46.5685 13.4315 60 30 60Z" fill="#AA843C"/>
<path d="M38.6113 41.7402H20.6113C20.3461 41.7402 20.0918 41.6349 19.9042 41.4473C19.7167 41.2598 19.6113 41.0055 19.6113 40.7402V18.7402C19.6113 18.475 19.7167 18.2207 19.9042 18.0331C20.0918 17.8456 20.3461 17.7402 20.6113 17.7402H32.6113L39.6113 24.7402V40.7402C39.6113 41.0055 39.506 41.2598 39.3184 41.4473C39.1309 41.6349 38.8765 41.7402 38.6113 41.7402Z" stroke="#AA843C" stroke-width="2" stroke-linecap="round" stroke-linejoin="round"/>
<path d="M32.6113 17.7402V24.7402H39.6113" stroke="#AA843C" stroke-width="2" stroke-linecap="round" stroke-linejoin="round"/>
<path d="M25.6113 30.7402H33.6113" stroke="#AA843C" stroke-width="2" stroke-linecap="round" stroke-linejoin="round"/>
<path d="M25.6113 34.7402H33.6113" stroke="#AA843C" stroke-width="2" stroke-linecap="round" stroke-linejoin="round"/>
</svg>
