<svg width="60" height="60" viewBox="0 0 60 60" fill="none" xmlns="http://www.w3.org/2000/svg">
<path opacity="0.1" d="M30 60C46.5685 60 60 46.5685 60 30C60 13.4315 46.5685 0 30 0C13.4315 0 0 13.4315 0 30C0 46.5685 13.4315 60 30 60Z" fill="#AA843C"/>
<path d="M25.0645 34.0674C28.6543 34.0674 31.5645 31.1572 31.5645 27.5674C31.5645 23.9775 28.6543 21.0674 25.0645 21.0674C21.4746 21.0674 18.5645 23.9775 18.5645 27.5674C18.5645 31.1572 21.4746 34.0674 25.0645 34.0674Z" stroke="#AA843C" stroke-width="2" stroke-miterlimit="10"/>
<path d="M33.4902 21.3049C34.0648 21.149 34.6574 21.0692 35.2527 21.0674C36.9766 21.0674 38.6299 21.7522 39.8489 22.9712C41.0679 24.1902 41.7527 25.8435 41.7527 27.5674C41.7527 29.2913 41.0679 30.9446 39.8489 32.1636C38.6299 33.3826 36.9766 34.0674 35.2527 34.0674" stroke="#AA843C" stroke-width="2" stroke-linecap="round" stroke-linejoin="round"/>
<path d="M16.0645 38.7428C17.0794 37.2986 18.427 36.1197 19.9935 35.306C21.5599 34.4922 23.2992 34.0674 25.0645 34.0674C26.8297 34.0674 28.569 34.4922 30.1354 35.306C31.7019 36.1197 33.0495 37.2986 34.0645 38.7428" stroke="#AA843C" stroke-width="2" stroke-linecap="round" stroke-linejoin="round"/>
<path d="M35.252 34.0674C37.0173 34.0663 38.757 34.4906 40.3236 35.3044C41.8902 36.1181 43.2377 37.2974 44.252 38.7424" stroke="#AA843C" stroke-width="2" stroke-linecap="round" stroke-linejoin="round"/>
</svg>
