<?xml version="1.0" encoding="UTF-8"?><svg xmlns="http://www.w3.org/2000/svg" viewBox="0 0 209.1 67.51"><defs><style>.d,.e,.f{fill:#aa843c;}.e{font-family:Gilroy-Bold, Gilroy-Bold;font-size:7.76px;}.f{fill-rule:evenodd;}.g{fill:#1f305c;}</style></defs><g id="a"/><g id="b"><g id="c"><path class="g" d="M194.07,49.01c1.47,0,2.58-.25,3.32-.75,.74-.5,1.12-1.28,1.12-2.35,0-2.08-1.48-3.12-4.44-3.12h-5.97v6.22h5.97Zm-5.97-14.37v5.98h5.32c1.33,0,2.36-.25,3.08-.76,.72-.51,1.08-1.25,1.08-2.23s-.36-1.72-1.08-2.23c-.72-.51-1.74-.76-3.08-.76h-5.32Zm9.63,6.84c1.06,.3,1.89,.85,2.49,1.64,.61,.79,.91,1.79,.91,3,0,1.62-.59,2.87-1.78,3.74-1.19,.87-2.91,1.31-5.18,1.31h-8.67v-18.69h8.15c2.08,0,3.68,.43,4.82,1.28,1.13,.85,1.7,2.04,1.7,3.55,0,.98-.22,1.82-.66,2.54-.44,.71-1.03,1.26-1.78,1.63Zm-22.74-9h2.6v18.69h-2.6v-18.69Zm-9.91,9.24h2.49v7.29c-.9,.77-1.95,1.35-3.14,1.76-1.19,.41-2.44,.61-3.74,.61-1.84,0-3.49-.41-4.96-1.24-1.47-.83-2.63-1.97-3.47-3.42-.84-1.45-1.26-3.08-1.26-4.9s.42-3.45,1.26-4.91c.84-1.46,2-2.6,3.48-3.42,1.48-.82,3.15-1.23,5-1.23,1.45,0,2.77,.24,3.96,.73,1.19,.49,2.19,1.21,3.03,2.15l-1.61,1.66c-1.45-1.44-3.21-2.16-5.27-2.16-1.38,0-2.63,.31-3.73,.92-1.1,.61-1.96,1.47-2.58,2.56-.62,1.09-.93,2.33-.93,3.7s.31,2.58,.93,3.67c.62,1.09,1.48,1.95,2.58,2.58,1.1,.62,2.33,.93,3.7,.93,1.63,0,3.05-.4,4.26-1.2v-6.09Zm-23.13,2.64l-3.92-9.16-3.92,9.16h7.84Zm.91,2.14h-9.66l-2,4.67h-2.67l8.23-18.69h2.57l8.26,18.69h-2.73l-2-4.67Zm-19.49-14.02v18.69h-2.13l-10.91-13.94v13.94h-2.6v-18.69h2.13l10.91,13.94v-13.94h2.6Zm-37.93,16.77c1.8,0,3.28-.59,4.44-1.76l-5.17-5.29c-1.25,.71-2.12,1.38-2.61,1.99-.49,.61-.74,1.3-.74,2.07,0,.89,.38,1.61,1.13,2.16,.75,.55,1.74,.83,2.95,.83Zm.62-15.06c-.81,0-1.45,.21-1.91,.63-.46,.42-.69,.97-.69,1.64,0,.48,.13,.94,.38,1.39,.25,.44,.74,1.05,1.47,1.82,1.19-.69,2.02-1.29,2.48-1.79,.46-.5,.69-1.04,.69-1.63,0-.62-.21-1.12-.64-1.5-.42-.37-1.02-.56-1.78-.56Zm7.71,17.28l-2.42-2.48c-1.61,1.6-3.64,2.4-6.08,2.4-1.21,0-2.3-.2-3.27-.61-.97-.41-1.73-.98-2.27-1.72-.55-.74-.82-1.58-.82-2.52,0-1.14,.34-2.15,1.03-3.03,.68-.88,1.81-1.78,3.39-2.71-.8-.82-1.36-1.56-1.69-2.22-.33-.66-.49-1.34-.49-2.06,0-1.26,.45-2.28,1.34-3.04,.89-.77,2.08-1.15,3.57-1.15,1.38,0,2.48,.35,3.3,1.04,.81,.69,1.22,1.65,1.22,2.86,0,.94-.3,1.79-.9,2.54-.6,.75-1.59,1.53-2.97,2.35l4.49,4.59c.52-1.01,.89-2.15,1.12-3.39l2,.67c-.31,1.64-.84,3.06-1.58,4.27l2.44,2.51-1.4,1.71ZM203.47,18.1l-3.92-9.16-3.92,9.16h7.84Zm.91,2.14h-9.66l-2,4.67h-2.67l8.23-18.69h2.57l8.26,18.69h-2.73l-2-4.67Zm-25.91-3.28c1.64,0,2.9-.36,3.77-1.09,.87-.73,1.3-1.77,1.3-3.12s-.43-2.39-1.3-3.11c-.87-.72-2.12-1.08-3.77-1.08h-4.42v8.41h4.42Zm5.14,7.96l-3.92-5.74c-.48,.04-.87,.05-1.14,.05h-4.49v5.69h-2.6V6.21h7.09c2.35,0,4.21,.58,5.56,1.74,1.35,1.16,2.03,2.75,2.03,4.78,0,1.44-.35,2.67-1.04,3.69-.69,1.02-1.68,1.75-2.96,2.22l4.31,6.28h-2.83Zm-22.95-6.81l-3.92-9.16-3.92,9.16h7.84Zm.91,2.14h-9.66l-2,4.67h-2.67l8.23-18.69h2.57l8.26,18.69h-2.73l-2-4.67Zm-21.98,4.67l-.03-13.62-6.57,11.35h-1.19l-6.57-11.27v13.54h-2.49V6.21h2.13l7.58,13.14,7.48-13.14h2.13l.03,18.69h-2.49ZM110.44,4.69l-2.39-2.06-2.39,2.06h-2.26l3.45-3.47h2.39l3.45,3.47h-2.26Zm1.51,13.41l-3.92-9.16-3.92,9.16h7.84Zm.91,2.14h-9.66l-2,4.67h-2.67l8.23-18.69h2.57l8.26,18.69h-2.73l-2-4.67Zm-24.24,4.89c-1.82,0-3.46-.41-4.92-1.24-1.46-.83-2.61-1.97-3.44-3.42-.83-1.45-1.25-3.08-1.25-4.9s.42-3.45,1.25-4.9c.83-1.45,1.98-2.59,3.45-3.42,1.47-.83,3.12-1.24,4.93-1.24,1.42,0,2.72,.24,3.9,.73,1.18,.49,2.18,1.22,3.01,2.18l-1.69,1.68c-1.37-1.48-3.07-2.22-5.12-2.22-1.35,0-2.57,.31-3.66,.93-1.09,.62-1.94,1.48-2.56,2.58-.61,1.1-.92,2.32-.92,3.67s.31,2.58,.92,3.67c.61,1.09,1.47,1.95,2.56,2.58,1.09,.62,2.31,.93,3.66,.93,2.03,0,3.73-.75,5.12-2.24l1.69,1.68c-.83,.96-1.84,1.69-3.03,2.19-1.19,.5-2.49,.75-3.91,.75Z"/><text class="e" transform="translate(79.01 65.41) scale(1 1.03)"><tspan x="0" y="0">A</tspan></text><text class="e" transform="translate(85.14 65.41) scale(1 1.03)"><tspan x="0" y="0">D</tspan></text><text class="e" transform="translate(91.39 65.41) scale(1 1.03)"><tspan x="0" y="0">V</tspan></text><text class="e" transform="translate(97.12 65.41) scale(1 1.03)"><tspan x="0" y="0">O</tspan></text><text class="e" transform="translate(104.21 65.41) scale(1 1.03)"><tspan x="0" y="0">C</tspan></text><text class="e" transform="translate(110.71 65.41) scale(1 1.03)"><tspan x="0" y="0">A</tspan></text><text class="e" transform="translate(116.65 65.41) scale(1 1.03)"><tspan x="0" y="0">C</tspan></text><text class="e" transform="translate(123.17 65.41) scale(1 1.03)"><tspan x="0" y="0">I</tspan></text><text class="e" transform="translate(126.2 65.41) scale(1 1.03)"><tspan x="0" y="0">A </tspan></text><text class="e" transform="translate(134.28 65.41) scale(1 1.03)"><tspan x="0" y="0">E</tspan></text><text class="e" transform="translate(139.34 65.41) scale(1 1.03)"><tspan x="0" y="0">S</tspan></text><text class="e" transform="translate(144.78 65.41) scale(1 1.03)"><tspan x="0" y="0">P</tspan></text><text class="e" transform="translate(150.31 65.41) scale(1 1.03)"><tspan x="0" y="0">E</tspan></text><text class="e" transform="translate(155.33 65.41) scale(1 1.03)"><tspan x="0" y="0">C</tspan></text><text class="e" transform="translate(161.85 65.41) scale(1 1.03)"><tspan x="0" y="0">I</tspan></text><text class="e" transform="translate(164.88 65.41) scale(1 1.03)"><tspan x="0" y="0">A</tspan></text><text class="e" transform="translate(171.02 65.41) scale(1 1.03)"><tspan x="0" y="0">L</tspan></text><text class="e" transform="translate(175.71 65.41) scale(1 1.03)"><tspan x="0" y="0">I</tspan></text><text class="e" transform="translate(178.74 65.41) scale(1 1.03)"><tspan x="0" y="0">Z</tspan></text><text class="e" transform="translate(183.88 65.41) scale(1 1.03)"><tspan x="0" y="0">A</tspan></text><text class="e" transform="translate(190.01 65.41) scale(1 1.03)"><tspan x="0" y="0">D</tspan></text><text class="e" transform="translate(196.3 65.41) scale(1 1.03)"><tspan x="0" y="0">A</tspan></text><path class="d" d="M17.98,.31c-1.24,.21-2.47,.52-3.67,.97h0c-3.26,1.18-6.2,3.25-8.55,5.91C3.41,9.85,1.66,13.09,.78,16.61v.02C-.05,19.58-.02,22.71,.01,25.82c0,.86,.02,1.72,0,2.57,0,2.25,0,4.49,0,6.74,0,3.56-.01,7.13,.03,10.7,.03,2.17,.39,4.34,1.09,6.38,.66,1.94,1.62,3.75,2.9,5.33l.03,.03c2.01,2.74,4.59,5.02,7.49,6.62,2.81,1.55,5.92,2.45,9.11,2.52,4.3,.02,8.61,.02,12.92,.02,3.39,0,6.79,0,10.18,0h0c1.26,.02,2.53,.03,3.8-.05,1.23-.07,2.46-.23,3.66-.55h.02c3.03-.73,5.85-2.22,8.29-4.23,2.56-2.11,4.71-4.81,6.27-7.81,2.03-4.18,1.94-8.97,1.86-13.69-.02-1.24-.04-2.47-.03-3.7-3.14,.03-6.29,.02-9.43,.01-1.07,0-2.14,0-3.21-.01-.02,.97,0,1.95,.02,2.92,.04,2.21,.08,4.42-.27,6.63v.04c-.38,1.85-1.33,3.4-2.61,4.59-1.38,1.28-3.14,2.13-4.94,2.47l-.56,.11-12.32-22.62c-2.01-3.7,2.4,4.4-11.31-20.77-1.13-.01-2.27,.02-3.39,.18-1.22,.18-2.41,.51-3.5,1.14l-.04,.02c-1.95,.98-3.57,2.58-4.72,4.49-1.16,1.93-1.83,4.19-1.85,6.47-.02,4.47-.02,8.93-.02,13.4,0,2.69,0,5.38,0,8.08v.02c-.05,1.91,.36,3.77,1.11,5.47,.53,1.2,1.23,2.32,2.06,3.32,.03-5.43,.02-10.87,.02-16.3,0-4.49,0-8.98,0-13.47-.01-1.27,.21-2.54,.65-3.7,.43-1.13,1.06-2.16,1.9-3.02,.72-.81,1.57-1.37,2.49-1.8,.87-.41,1.79-.69,2.69-.95l.61-.18,.32,.58c2.6,4.78,6.95,12.76,11.25,20.66,3.6,6.61,7.19,13.19,12.12,22.25,2.07,.1,4.2-.23,6.11-1.04,1.83-.77,3.47-1.97,4.7-3.67l.03-.04c1.19-1.47,1.9-3.22,2.29-5.08,.4-1.9,.46-3.92,.35-5.87l-.05-.92h.87c1.03,0,2.1,0,4.66,0h.82v1.85c.05,3.64,.08,7.43-1.65,10.8h0c-1.64,3.06-4.01,5.71-6.82,7.59-2.67,1.78-5.74,2.87-8.95,2.94h-.01c-4.42,.03-8.84,.03-13.25,.02-3.9,0-7.8,0-11.7,.01-3.35,.17-6.61-.74-9.49-2.43-2.99-1.75-5.56-4.35-7.36-7.43-.87-1.47-1.39-3.08-1.69-4.74-.29-1.62-.38-3.29-.39-4.91h0c0-2.99,0-5.96,0-8.94,0-3.52,0-7.04-.01-10.56,0-1.18,.03-2.36,.14-3.54,.12-1.19,.31-2.38,.63-3.54,1.02-3.89,3.29-7.31,6.26-9.77,2.97-2.47,6.65-3.98,10.47-4.09h.01c5.02-.04,10.04-.04,15.07-.03,3.46,0,6.92,0,10.38,0,3.26-.04,6.5,.9,9.32,2.62,2.79,1.7,5.16,4.17,6.73,7.18,1.08,1.92,1.72,4.02,2.06,6.18,.34,2.13,.38,4.33,.29,6.46l-.04,.83c-2.09,0-4.17,0-6.26,.02,0-1.48-.03-2.93-.07-4.4-.07-2.86-.14-4.6-1.94-7.04-1.91-2.58-4.88-3.85-8.3-4.23,4.07,2.3,6.76,4.17,6.94,10.56,.19,1.86,.18,4.03,.19,6.65v1.82c1.93,.01,3.86,0,5.79-.01,2.28-.01,4.56-.03,6.84,0,0-1.07,0-2.15,.03-3.23,.12-7.51-.38-13.06-5.19-18.95-3.07-3.76-7.19-6.32-11.77-7.32C49.05,.15,47.35-.01,45.65,0h0c-3.93,0-7.86,0-11.79,0-3.93,0-7.86,0-11.79,0h0c-1.36-.01-2.73,.08-4.08,.31"/><path class="f" d="M16.83,22.29c.06-2.64,1.31-3.47,2.56-3.96l20.86,38.41h-3.76L20.01,26.46v30.29c-1.25,.1-2.79-.1-3.18-.89V22.29Z"/><path class="f" d="M51.18,20.35c-.06-2.71-1.94-4.03-3.19-4.54v8.81l-.04,23.47c1.24,.11,2.84-1.33,3.23-2.14V20.35Z"/></g></g></svg>