<svg width="143" height="46" viewBox="0 0 143 46" fill="none" xmlns="http://www.w3.org/2000/svg">
<g clip-path="url(#clip0_227_1485)">
<path d="M132.783 33.3221C133.782 33.3221 134.537 33.1521 135.04 32.8121C135.543 32.4722 135.802 31.9419 135.802 31.2144C135.802 29.8002 134.796 29.0931 132.783 29.0931H128.724V33.3221H132.783ZM128.724 23.5519V27.6177H132.341C133.245 27.6177 133.946 27.4477 134.435 27.1009C134.925 26.7542 135.169 26.2511 135.169 25.5848C135.169 24.9185 134.925 24.4153 134.435 24.0686C133.946 23.7218 133.252 23.5519 132.341 23.5519H128.724V23.5519ZM135.271 28.2024C135.992 28.4064 136.556 28.7803 136.964 29.3174C137.379 29.8546 137.583 30.5345 137.583 31.3571C137.583 32.4586 137.182 33.3085 136.373 33.9C135.564 34.4915 134.394 34.7907 132.851 34.7907H126.956V22.0833H132.497C133.912 22.0833 135 22.3756 135.775 22.9535C136.543 23.5315 136.93 24.3405 136.93 25.3672C136.93 26.0335 136.781 26.6046 136.482 27.0941C136.183 27.5769 135.781 27.9508 135.271 28.2024ZM119.81 22.0833H121.578V34.7907H119.81V22.0833ZM113.073 28.3656H114.766V33.3221C114.154 33.8456 113.44 34.2399 112.631 34.5187C111.822 34.7975 110.972 34.9334 110.088 34.9334C108.837 34.9334 107.715 34.6547 106.716 34.0904C105.716 33.526 104.927 32.7509 104.356 31.7651C103.785 30.7792 103.5 29.671 103.5 28.4336C103.5 27.1961 103.785 26.0879 104.356 25.0952C104.927 24.1026 105.716 23.3275 106.722 22.77C107.729 22.2124 108.864 21.9337 110.122 21.9337C111.108 21.9337 112.005 22.0969 112.814 22.43C113.623 22.7632 114.303 23.2527 114.874 23.8918L113.78 25.0204C112.794 24.0414 111.597 23.5519 110.197 23.5519C109.258 23.5519 108.408 23.7626 107.661 24.1774C106.913 24.5921 106.328 25.1768 105.906 25.9179C105.485 26.659 105.274 27.5021 105.274 28.4336C105.274 29.365 105.485 30.1877 105.906 30.9288C106.328 31.6699 106.913 32.2546 107.661 32.683C108.408 33.1045 109.245 33.3153 110.176 33.3153C111.284 33.3153 112.25 33.0433 113.073 32.4994V28.3588V28.3656ZM97.3465 30.1605L94.6812 23.9326L92.016 30.1605H97.3465V30.1605ZM97.9652 31.6155H91.3973L90.0375 34.7907H88.2222L93.8178 22.0833H95.5651L101.181 34.7907H99.325L97.9652 31.6155V31.6155ZM84.7139 22.0833V34.7907H83.2657L75.8479 25.3128V34.7907H74.0802V22.0833H75.5284L82.9461 31.5611V22.0833H84.7139ZM58.9251 33.4852C60.1489 33.4852 61.1552 33.0841 61.9439 32.2886L58.4288 28.6919C57.5789 29.1747 56.9874 29.6302 56.6542 30.0449C56.3211 30.4597 56.1511 30.9288 56.1511 31.4523C56.1511 32.0574 56.4095 32.547 56.9194 32.9209C57.4293 33.2949 58.1024 33.4852 58.9251 33.4852ZM59.3467 23.2459C58.7959 23.2459 58.3608 23.3887 58.048 23.6742C57.7353 23.9598 57.5789 24.3337 57.5789 24.7893C57.5789 25.1156 57.6673 25.4284 57.8373 25.7343C58.0072 26.0335 58.3404 26.4482 58.8367 26.9718C59.6458 26.5026 60.2101 26.0947 60.5229 25.7547C60.8356 25.4148 60.992 25.0476 60.992 24.6465C60.992 24.225 60.8492 23.885 60.5569 23.6266C60.2713 23.3751 59.8634 23.2459 59.3467 23.2459ZM64.5887 34.9946L62.9433 33.3085C61.8487 34.3963 60.4685 34.9402 58.8095 34.9402C57.9868 34.9402 57.2458 34.8043 56.5863 34.5255C55.9267 34.2467 55.41 33.8592 55.0429 33.3561C54.6689 32.8529 54.4854 32.2818 54.4854 31.6427C54.4854 30.8676 54.7165 30.1809 55.1857 29.5826C55.648 28.9843 56.4163 28.3724 57.4905 27.7401C56.9466 27.1825 56.5659 26.6794 56.3415 26.2307C56.1171 25.7819 56.0083 25.3196 56.0083 24.8301C56.0083 23.9734 56.3143 23.2799 56.9194 22.7632C57.5245 22.2396 58.3336 21.9813 59.3467 21.9813C60.2849 21.9813 61.0328 22.2192 61.5903 22.6884C62.1411 23.1575 62.4198 23.8102 62.4198 24.6329C62.4198 25.272 62.2159 25.8499 61.8079 26.3599C61.4 26.8698 60.7269 27.4001 59.7886 27.9576L62.8414 31.0784C63.1949 30.3917 63.4465 29.6166 63.6029 28.7735L64.9627 29.229C64.7519 30.3441 64.3915 31.3095 63.8884 32.1322L65.5474 33.8388L64.5955 35.0014L64.5887 34.9946ZM139.174 12.3063L136.509 6.07834L133.844 12.3063H139.174V12.3063ZM139.793 13.7612H133.225L131.865 16.9364H130.05L135.645 4.229H137.393L143.009 16.9364H141.153L139.793 13.7612ZM122.177 11.5312C123.292 11.5312 124.148 11.2864 124.74 10.7901C125.331 10.2937 125.624 9.58664 125.624 8.66877C125.624 7.7509 125.331 7.0438 124.74 6.55427C124.148 6.06474 123.298 5.81997 122.177 5.81997H119.171V11.538H122.177V11.5312ZM125.671 16.9432L123.006 13.0405C122.68 13.0677 122.414 13.0745 122.231 13.0745H119.178V16.9432H117.41V4.2222H122.231C123.829 4.2222 125.093 4.61654 126.011 5.40523C126.929 6.19392 127.391 7.27497 127.391 8.65517C127.391 9.63423 127.153 10.4705 126.684 11.164C126.215 11.8575 125.542 12.3538 124.672 12.6734L127.602 16.9432H125.678H125.671ZM110.067 12.3131L107.402 6.08514L104.737 12.3131H110.067V12.3131ZM110.686 13.768H104.118L102.758 16.9432H100.943L106.539 4.2358H108.286L113.902 16.9432H112.046L110.686 13.768V13.768ZM95.7419 16.9432L95.7215 7.68291L91.2545 15.3998H90.4454L85.9785 7.7373V16.9432H84.2855V4.2222H85.7337L90.8874 13.1561L95.973 4.2222H97.4212L97.4416 16.9296H95.7487L95.7419 16.9432ZM75.9227 3.18875L74.2977 1.78815L72.6728 3.18875H71.1362L73.4818 0.829483H75.1068L77.4525 3.18875H75.9159H75.9227ZM76.9494 12.3063L74.2841 6.07834L71.6189 12.3063H76.9494ZM77.5681 13.7612H71.0002L69.6404 16.9364H67.8251L73.4207 4.229H75.168L80.784 16.9364H78.9279L77.5681 13.7612ZM61.0872 17.086C59.8498 17.086 58.7347 16.8072 57.7421 16.2429C56.7494 15.6786 55.9675 14.9035 55.4032 13.9176C54.8389 12.9318 54.5533 11.8235 54.5533 10.5861C54.5533 9.34867 54.8389 8.24043 55.4032 7.25457C55.9675 6.26871 56.7494 5.49362 57.7489 4.9293C58.7483 4.36498 59.8702 4.08622 61.1008 4.08622C62.0663 4.08622 62.9501 4.2494 63.7524 4.58255C64.5547 4.9157 65.2346 5.41203 65.7989 6.06474L64.6499 7.20698C63.7184 6.20072 62.5626 5.69759 61.1688 5.69759C60.2509 5.69759 59.4214 5.90836 58.6804 6.3299C57.9393 6.75144 57.3613 7.33616 56.9398 8.08405C56.5251 8.83195 56.3143 9.66143 56.3143 10.5793C56.3143 11.4972 56.5251 12.3334 56.9398 13.0745C57.3545 13.8156 57.9393 14.4004 58.6804 14.8287C59.4214 15.2502 60.2509 15.461 61.1688 15.461C62.549 15.461 63.7048 14.9511 64.6499 13.938L65.7989 15.0803C65.2346 15.733 64.5479 16.2293 63.7388 16.5692C62.9297 16.9092 62.0459 17.0792 61.0804 17.0792L61.0872 17.086Z" fill="#273961"/>
<path d="M57.3471 43.7545L57.1187 43.0692H55.6011L55.3727 43.7545H54.5622L55.8948 39.947H56.8249L58.163 43.7545H57.3471ZM55.8404 42.3675H56.8848L56.3626 40.8119L55.8404 42.3675ZM60.5887 39.947C61.1109 39.947 61.546 40.1302 61.8941 40.4964C62.2459 40.8626 62.4217 41.3141 62.4217 41.8508C62.4217 42.3874 62.2459 42.8389 61.8941 43.2051C61.546 43.5714 61.1109 43.7545 60.5887 43.7545H59.0766V39.947H60.5887ZM60.5887 43.0365C60.9187 43.0365 61.187 42.9277 61.3937 42.7102C61.6004 42.489 61.7038 42.2025 61.7038 41.8508C61.7038 41.499 61.6004 41.2144 61.3937 40.9968C61.187 40.7756 60.9187 40.665 60.5887 40.665H59.8272V43.0365H60.5887ZM64.2691 43.7545L62.9909 39.947H63.8068L64.7369 42.8733L65.6616 39.947H66.4829L65.1992 43.7545H64.2691ZM70.4275 43.2595C70.0431 43.6403 69.5753 43.8307 69.0241 43.8307C68.473 43.8307 68.0052 43.6403 67.6208 43.2595C67.2401 42.8752 67.0497 42.4056 67.0497 41.8508C67.0497 41.296 67.2401 40.8282 67.6208 40.4475C68.0052 40.0631 68.473 39.8709 69.0241 39.8709C69.5753 39.8709 70.0431 40.0631 70.4275 40.4475C70.8118 40.8282 71.004 41.296 71.004 41.8508C71.004 42.4056 70.8118 42.8752 70.4275 43.2595ZM68.1484 42.7482C68.3841 42.9803 68.676 43.0964 69.0241 43.0964C69.3723 43.0964 69.6642 42.9803 69.8999 42.7482C70.1356 42.5125 70.2534 42.2134 70.2534 41.8508C70.2534 41.4882 70.1356 41.189 69.8999 40.9533C69.6642 40.7176 69.3723 40.5997 69.0241 40.5997C68.676 40.5997 68.3841 40.7176 68.1484 40.9533C67.9127 41.189 67.7949 41.4882 67.7949 41.8508C67.7949 42.2134 67.9127 42.5125 68.1484 42.7482ZM73.8813 43.8307C73.3084 43.8307 72.8352 43.6403 72.4617 43.2595C72.0882 42.8788 71.9015 42.4092 71.9015 41.8508C71.9015 41.2887 72.0882 40.8191 72.4617 40.442C72.8352 40.0613 73.3084 39.8709 73.8813 39.8709C74.2258 39.8709 74.5431 39.9525 74.8332 40.1157C75.1269 40.2752 75.3554 40.4928 75.5185 40.7684L74.8713 41.1437C74.777 40.9732 74.6428 40.8409 74.4688 40.7466C74.2947 40.6487 74.0989 40.5997 73.8813 40.5997C73.5115 40.5997 73.2123 40.7158 72.9839 40.9479C72.759 41.1799 72.6466 41.4809 72.6466 41.8508C72.6466 42.217 72.759 42.5162 72.9839 42.7482C73.2123 42.9803 73.5115 43.0964 73.8813 43.0964C74.0989 43.0964 74.2947 43.0492 74.4688 42.9549C74.6464 42.857 74.7806 42.7247 74.8713 42.5579L75.5185 42.9332C75.3554 43.2088 75.1287 43.4281 74.8386 43.5913C74.5485 43.7509 74.2294 43.8307 73.8813 43.8307ZM78.9553 43.7545L78.7268 43.0692H77.2093L76.9808 43.7545H76.1704L77.503 39.947H78.4331L79.7712 43.7545H78.9553ZM77.4486 42.3675H78.4929L77.9708 40.8119L77.4486 42.3675ZM82.3525 43.8307C81.7796 43.8307 81.3064 43.6403 80.9329 43.2595C80.5594 42.8788 80.3726 42.4092 80.3726 41.8508C80.3726 41.2887 80.5594 40.8191 80.9329 40.442C81.3064 40.0613 81.7796 39.8709 82.3525 39.8709C82.697 39.8709 83.0143 39.9525 83.3044 40.1157C83.5981 40.2752 83.8265 40.4928 83.9897 40.7684L83.3424 41.1437C83.2482 40.9732 83.114 40.8409 82.9399 40.7466C82.7659 40.6487 82.5701 40.5997 82.3525 40.5997C81.9826 40.5997 81.6835 40.7158 81.455 40.9479C81.2302 41.1799 81.1178 41.4809 81.1178 41.8508C81.1178 42.217 81.2302 42.5162 81.455 42.7482C81.6835 42.9803 81.9826 43.0964 82.3525 43.0964C82.5701 43.0964 82.7659 43.0492 82.9399 42.9549C83.1176 42.857 83.2518 42.7247 83.3424 42.5579L83.9897 42.9332C83.8265 43.2088 83.5999 43.4281 83.3098 43.5913C83.0197 43.7509 82.7006 43.8307 82.3525 43.8307ZM84.9947 39.947H85.7453V43.7545H84.9947V39.947ZM89.4417 43.7545L89.2133 43.0692H87.6957L87.4673 43.7545H86.6568L87.9895 39.947H88.9196L90.2576 43.7545H89.4417ZM87.9351 42.3675H88.9794L88.4572 40.8119L87.9351 42.3675ZM93.8256 43.0365H95.4301V43.7545H93.075V39.947H95.4029V40.665H93.8256V41.4755H95.267V42.1826H93.8256V43.0365ZM97.8031 43.8307C97.426 43.8307 97.1087 43.7472 96.8513 43.5804C96.5938 43.41 96.4125 43.1798 96.3073 42.8897L96.9492 42.5144C97.0978 42.9024 97.3898 43.0964 97.8249 43.0964C98.0352 43.0964 98.1893 43.0583 98.2872 42.9821C98.3851 42.906 98.4341 42.8099 98.4341 42.6939C98.4341 42.5597 98.3743 42.4563 98.2546 42.3838C98.1349 42.3077 97.921 42.2261 97.6128 42.1391C97.4423 42.0883 97.2973 42.0375 97.1776 41.9868C97.0616 41.936 96.9437 41.8689 96.8241 41.7855C96.708 41.6985 96.6192 41.5897 96.5576 41.4591C96.4959 41.3286 96.4651 41.1763 96.4651 41.0023C96.4651 40.6578 96.5866 40.384 96.8295 40.1809C97.0761 39.9742 97.3716 39.8709 97.7161 39.8709C98.0243 39.8709 98.2945 39.947 98.5266 40.0993C98.7623 40.248 98.9454 40.4565 99.0759 40.7249L98.445 41.0893C98.2927 40.7629 98.0497 40.5997 97.7161 40.5997C97.5602 40.5997 97.4369 40.636 97.3462 40.7085C97.2592 40.7774 97.2157 40.8681 97.2157 40.9805C97.2157 41.1002 97.2647 41.1981 97.3626 41.2742C97.4641 41.3467 97.6563 41.4265 97.9391 41.5135C98.0552 41.5498 98.1422 41.5788 98.2002 41.6006C98.2618 41.6187 98.3434 41.6495 98.445 41.693C98.5501 41.7329 98.6299 41.771 98.6843 41.8073C98.7423 41.8435 98.8076 41.8925 98.8801 41.9541C98.9526 42.0158 99.007 42.0792 99.0433 42.1445C99.0832 42.2098 99.1158 42.2895 99.1412 42.3838C99.1702 42.4745 99.1847 42.5742 99.1847 42.683C99.1847 43.0347 99.056 43.3139 98.7985 43.5206C98.5447 43.7273 98.2129 43.8307 97.8031 43.8307ZM101.611 39.947C101.978 39.947 102.286 40.0703 102.536 40.3169C102.786 40.5635 102.911 40.8663 102.911 41.2253C102.911 41.5842 102.786 41.887 102.536 42.1336C102.286 42.3802 101.978 42.5035 101.611 42.5035H100.942V43.7545H100.192V39.947H101.611ZM101.611 41.8018C101.771 41.8018 101.903 41.7474 102.008 41.6386C102.113 41.5262 102.166 41.3884 102.166 41.2253C102.166 41.0585 102.113 40.9207 102.008 40.8119C101.903 40.7031 101.771 40.6487 101.611 40.6487H100.942V41.8018H101.611ZM104.694 43.0365H106.299V43.7545H103.944V39.947H106.272V40.665H104.694V41.4755H106.136V42.1826H104.694V43.0365ZM109.151 43.8307C108.578 43.8307 108.105 43.6403 107.732 43.2595C107.358 42.8788 107.171 42.4092 107.171 41.8508C107.171 41.2887 107.358 40.8191 107.732 40.442C108.105 40.0613 108.578 39.8709 109.151 39.8709C109.496 39.8709 109.813 39.9525 110.103 40.1157C110.397 40.2752 110.625 40.4928 110.789 40.7684L110.141 41.1437C110.047 40.9732 109.913 40.8409 109.739 40.7466C109.565 40.6487 109.369 40.5997 109.151 40.5997C108.781 40.5997 108.482 40.7158 108.254 40.9479C108.029 41.1799 107.917 41.4809 107.917 41.8508C107.917 42.217 108.029 42.5162 108.254 42.7482C108.482 42.9803 108.781 43.0964 109.151 43.0964C109.369 43.0964 109.565 43.0492 109.739 42.9549C109.916 42.857 110.051 42.7247 110.141 42.5579L110.789 42.9332C110.625 43.2088 110.399 43.4281 110.109 43.5913C109.819 43.7509 109.499 43.8307 109.151 43.8307ZM111.794 39.947H112.544V43.7545H111.794V39.947ZM116.241 43.7545L116.012 43.0692H114.495L114.266 43.7545H113.456L114.788 39.947H115.718L117.056 43.7545H116.241ZM114.734 42.3675H115.778L115.256 40.8119L114.734 42.3675ZM118.721 43.0365H120.173V43.7545H117.97V39.947H118.721V43.0365ZM121.143 39.947H121.894V43.7545H121.143V39.947ZM123.942 43.0365H125.558V43.7545H122.985V43.1562L124.568 40.665H123.023V39.947H125.525V40.5399L123.942 43.0365ZM129.066 43.7545L128.838 43.0692H127.32L127.092 43.7545H126.281L127.614 39.947H128.544L129.882 43.7545H129.066ZM127.56 42.3675H128.604L128.082 40.8119L127.56 42.3675ZM132.308 39.947C132.83 39.947 133.265 40.1302 133.613 40.4964C133.965 40.8626 134.141 41.3141 134.141 41.8508C134.141 42.3874 133.965 42.8389 133.613 43.2051C133.265 43.5714 132.83 43.7545 132.308 43.7545H130.796V39.947H132.308ZM132.308 43.0365C132.638 43.0365 132.906 42.9277 133.113 42.7102C133.32 42.489 133.423 42.2025 133.423 41.8508C133.423 41.499 133.32 41.2144 133.113 40.9968C132.906 40.7756 132.638 40.665 132.308 40.665H131.546V43.0365H132.308ZM137.527 43.7545L137.298 43.0692H135.781L135.552 43.7545H134.742L136.075 39.947H137.005L138.343 43.7545H137.527ZM136.02 42.3675H137.064L136.542 40.8119L136.02 42.3675Z" fill="#AA843C"/>
<path d="M13.0585 0.210682C12.2154 0.353461 11.3791 0.564231 10.5632 0.870188C8.34676 1.67247 6.34785 3.07987 4.75007 4.88842C3.1523 6.69696 1.96247 8.89985 1.36415 11.2931V11.3067C0.799833 13.3124 0.82023 15.4405 0.840627 17.555C0.840627 18.1397 0.854225 18.7245 0.840627 19.3024C0.840627 20.8322 0.840627 22.3551 0.840627 23.8849C0.840627 26.3054 0.833828 28.7326 0.861024 31.1599C0.881421 32.6353 1.12619 34.1107 1.60212 35.4977C2.05086 36.8167 2.70356 38.0473 3.57384 39.1216L3.59424 39.142C4.96084 41.0049 6.71499 42.5551 8.68671 43.6429C10.5972 44.6968 12.7117 45.3087 14.8806 45.3563C17.8042 45.3699 20.7346 45.3699 23.665 45.3699C25.9699 45.3699 28.2815 45.3699 30.5864 45.3699C31.4431 45.3835 32.3066 45.3903 33.17 45.3359C34.0063 45.2883 34.8426 45.1795 35.6585 44.9619H35.6721C37.7322 44.4656 39.6495 43.4525 41.3085 42.0859C43.049 40.6513 44.5108 38.8156 45.5715 36.7759C46.9517 33.9339 46.8905 30.6772 46.8361 27.468C46.8225 26.6249 46.8089 25.7886 46.8157 24.9524C44.6808 24.9728 42.5391 24.966 40.4042 24.9592C39.6767 24.9592 38.9492 24.9592 38.2217 24.9524C38.2081 25.6119 38.2217 26.2782 38.2353 26.9377C38.2625 28.4403 38.2897 29.9429 38.0517 31.4454V31.4726C37.7934 32.7305 37.1475 33.7843 36.2772 34.5934C35.3389 35.4637 34.1423 36.0416 32.9185 36.2728L32.5377 36.3475L24.1613 20.9681C22.7947 18.4525 25.7931 23.9597 16.4716 6.84654C15.7033 6.83974 14.9282 6.86014 14.1667 6.96892C13.3373 7.0913 12.5282 7.31567 11.7871 7.74401L11.7599 7.75761C10.4341 8.42391 9.33262 9.51176 8.55073 10.8104C7.76204 12.1226 7.30651 13.6592 7.29291 15.2094C7.27931 18.2485 7.27931 21.2809 7.27931 24.3201C7.27931 26.149 7.27931 27.9779 7.27931 29.8137V29.8273C7.24532 31.1259 7.52408 32.3905 8.03401 33.5463C8.39435 34.3622 8.87029 35.1237 9.43461 35.8036C9.455 32.1118 9.4482 28.4131 9.4482 24.7212C9.4482 21.6684 9.4482 18.6157 9.4482 15.5629C9.44141 14.6994 9.59098 13.8359 9.89014 13.0473C10.1825 12.279 10.6108 11.5787 11.182 10.994C11.6715 10.4432 12.2494 10.0625 12.8749 9.77012C13.4664 9.49136 14.0919 9.30099 14.7039 9.12422L15.1186 9.00183L15.3362 9.39618C17.1039 12.6461 20.0615 18.0717 22.9851 23.443C25.4327 27.9371 27.8736 32.4109 31.2255 38.5708C32.6329 38.6388 34.0811 38.4145 35.3797 37.8637C36.6239 37.3402 37.739 36.5243 38.5753 35.3685L38.5957 35.3413C39.4048 34.3418 39.8875 33.152 40.1526 31.8874C40.4246 30.5956 40.4654 29.2222 40.3906 27.8963L40.3566 27.2708H40.9481C41.6484 27.2708 42.3759 27.2708 44.1165 27.2708H44.674V28.5287C44.708 31.0035 44.7284 33.5803 43.5522 35.8716C42.4371 37.9521 40.8257 39.7539 38.9152 41.0321C37.0999 42.2423 35.0126 42.9834 32.8301 43.031H32.8233C29.8181 43.0514 26.8129 43.0514 23.8146 43.0446C21.1629 43.0446 18.5113 43.0446 15.8597 43.0514C13.582 43.167 11.3655 42.5483 9.40741 41.3992C7.3745 40.2094 5.62715 38.4417 4.40332 36.3475C3.81181 35.3481 3.45826 34.2534 3.25428 33.1248C3.05711 32.0234 2.99592 30.8879 2.98912 29.7865C2.98912 27.7536 2.98912 25.7343 2.98912 23.7081C2.98912 21.3149 2.98912 18.9216 2.98232 16.5284C2.98232 15.7261 3.00272 14.9238 3.07751 14.1215C3.1591 13.3124 3.28828 12.5033 3.50585 11.7146C4.19935 9.06982 5.74273 6.74455 7.76204 5.07199C9.78136 3.39263 12.2834 2.36598 14.8806 2.29119H14.8874C18.3005 2.26399 21.7137 2.26399 25.1336 2.27079C27.486 2.27079 29.8385 2.27079 32.191 2.27079C34.4075 2.24359 36.6103 2.8827 38.5277 4.05214C40.4246 5.20797 42.036 6.88733 43.1034 8.93384C43.8377 10.2393 44.2729 11.6671 44.504 13.1356C44.7352 14.5838 44.7624 16.0796 44.7012 17.5278L44.674 18.0921C43.253 18.0921 41.8388 18.0921 40.4178 18.1057C40.4178 17.0995 40.3974 16.1136 40.3702 15.1142C40.3226 13.1696 40.275 11.9866 39.0512 10.3276C37.7526 8.57349 35.7333 7.71002 33.408 7.45165C36.1752 9.01543 38.0041 10.2869 38.1265 14.6314C38.2557 15.8961 38.2489 17.3714 38.2557 19.1528V20.3902C39.5679 20.397 40.8801 20.3902 42.1924 20.3834C43.7425 20.3766 45.2927 20.363 46.8429 20.3834C46.8429 19.6559 46.8429 18.9216 46.8633 18.1873C46.9449 13.0813 46.6049 9.30779 43.3346 5.30316C41.2473 2.74672 38.4461 1.00617 35.3321 0.326265C34.1831 0.101897 33.0273 -0.00688755 31.8714 -8.85147e-05C29.1994 -8.85147e-05 26.5274 -8.85147e-05 23.8554 -8.85147e-05C21.1833 -8.85147e-05 18.5113 -8.85147e-05 15.8393 -8.85147e-05C14.9146 -0.00688755 13.9832 0.0543038 13.0653 0.210682" fill="#AA843C"/>
<path fill-rule="evenodd" clip-rule="evenodd" d="M12.2764 15.155C12.3172 13.3601 13.167 12.7958 14.0169 12.4626L28.1997 38.5777H25.6433L14.4385 17.9902V38.5845C13.5886 38.6525 12.5415 38.5165 12.2764 37.9794V15.155V15.155Z" fill="#AA843C"/>
<path fill-rule="evenodd" clip-rule="evenodd" d="M35.6316 13.836C35.5908 11.9935 34.3126 11.096 33.4627 10.7493V16.7392L33.4355 32.6965C34.2786 32.7713 35.3665 31.7923 35.6316 31.2415V13.836Z" fill="#AA843C"/>
</g>
<defs>
<clipPath id="clip0_227_1485">
<rect width="142.168" height="45.9003" fill="white" transform="translate(0.832031)"/>
</clipPath>
</defs>
</svg>
